<svg xmlns="http://www.w3.org/2000/svg" width="1024" height="1024" viewBox="0 0 1024 1024">
<g>
<path d="M 0.00 0.00 L 1024.00 0.00 L 1024.00 1024.00 L 0.00 1024.00 ZM 407.75 852.18 C409.85,852.43 605.06,852.30 615.75,852.05 C617.97,852.00 618.00,851.84 618.00,838.00 L 618.00 824.00 L 647.00 824.00 L 647.00 766.00 L 632.50 766.00 C619.38,766.00 617.99,765.83 617.95,764.25 C617.92,763.29 617.94,756.99 618.00,750.25 L 618.10 738.00 L 557.00 738.00 L 557.00 710.00 L 646.95 710.00 L 647.50 681.50 L 662.75 681.22 L 678.00 680.95 L 678.00 652.00 L 692.50 652.00 C703.35,652.00 707.04,651.69 707.15,650.75 C707.24,650.06 707.41,649.05 707.54,648.50 C707.66,647.95 707.82,642.21 707.88,635.75 L 708.00 624.00 L 737.00 624.00 L 737.00 553.00 C737.00,496.98 736.74,481.96 735.75,481.79 C735.06,481.67 728.51,481.56 721.19,481.54 L 707.87 481.50 L 707.50 424.50 L 692.60 424.33 L 677.70 424.15 L 677.60 410.33 L 677.50 396.50 L 662.50 396.00 C651.51,395.63 647.47,395.17 647.40,394.25 C647.34,393.56 647.23,381.08 647.15,366.50 L 647.00 340.00 L 618.03 340.00 L 617.50 283.50 L 602.83 283.22 L 588.17 282.95 L 587.53 275.72 C587.18,271.75 587.03,265.58 587.20,262.00 L 587.50 255.50 L 557.00 254.95 L 557.00 226.00 L 526.00 226.00 L 526.00 212.62 C526.00,211.42 526.01,210.33 526.02,209.32 C526.06,203.88 526.08,201.04 524.67,199.57 C523.13,197.96 519.89,197.97 513.11,198.00 C511.95,198.01 510.70,198.02 509.34,198.01 L 497.17 198.00 L 496.46 190.45 C496.07,186.29 496.01,181.30 496.33,179.34 C496.65,177.39 496.65,174.49 496.33,172.90 L 495.75 170.00 L 466.00 170.00 L 466.00 214.34 C466.00,238.73 465.71,264.15 465.35,270.82 L 464.70 282.95 L 450.10 283.22 L 435.50 283.50 L 435.23 311.75 L 434.97 340.00 L 405.00 340.00 L 405.00 367.95 L 375.50 368.50 L 375.33 382.35 L 375.16 396.20 L 346.27 395.91 L 345.63 399.08 C345.29,400.82 345.00,407.14 345.00,413.12 L 345.00 424.00 L 331.58 424.00 C324.20,424.00 317.45,424.27 316.58,424.61 C315.19,425.14 315.00,428.65 315.00,453.74 L 315.00 482.28 L 307.40 481.59 C303.22,481.21 296.70,481.20 292.90,481.58 L 286.00 482.26 L 286.00 624.00 L 315.00 624.00 L 315.00 652.00 L 345.00 652.00 L 345.00 681.00 L 374.95 681.00 L 375.22 695.25 L 375.50 709.50 L 420.25 709.76 L 465.00 710.02 L 465.00 738.00 L 405.00 738.00 L 405.00 765.95 L 375.50 766.50 L 375.50 823.50 L 405.00 824.05 L 405.00 851.87 ZM 302.45 95.92 C302.97,96.75 317.90,96.25 318.92,95.36 C319.15,95.16 315.41,95.00 310.61,95.00 C305.54,95.00 302.12,95.39 302.45,95.92 ZM 303.00 912.00 C303.00,912.55 305.05,913.00 307.56,913.00 C310.34,913.00 311.88,912.61 311.50,912.00 C311.16,911.45 309.11,911.00 306.94,911.00 C304.77,911.00 303.00,911.45 303.00,912.00 ZM 712.50 912.00 C711.03,912.63 711.89,912.88 715.75,912.93 C718.64,912.97 721.00,912.55 721.00,912.00 C721.00,910.80 715.30,910.80 712.50,912.00 Z" fill="rgb(0,0,0)"/>
<path d="M 407.75 852.18 L 405.00 851.87 L 405.00 824.05 L 375.50 823.50 L 375.50 766.50 L 405.00 765.95 L 405.00 738.00 L 465.00 738.00 L 465.00 710.02 L 420.25 709.76 L 375.50 709.50 L 375.22 695.25 L 374.95 681.00 L 345.00 681.00 L 345.00 652.00 L 315.00 652.00 L 315.00 624.00 L 286.00 624.00 L 286.00 482.26 L 292.90 481.58 C296.70,481.20 303.22,481.21 307.40,481.59 L 315.00 482.28 L 315.00 453.74 C315.00,428.65 315.19,425.14 316.58,424.61 C317.45,424.27 324.20,424.00 331.58,424.00 L 345.00 424.00 L 345.00 413.12 C345.00,407.14 345.29,400.82 345.63,399.08 L 346.27 395.91 L 375.16 396.20 L 375.33 382.35 L 375.50 368.50 L 405.00 367.95 L 405.00 340.00 L 434.97 340.00 L 435.23 311.75 L 435.50 283.50 L 450.10 283.22 L 464.70 282.95 L 465.35 270.82 C465.71,264.15 466.00,238.73 466.00,214.34 L 466.00 170.00 L 495.75 170.00 L 496.33 172.90 C496.65,174.49 496.65,177.39 496.33,179.34 C496.01,181.30 496.07,186.29 496.46,190.45 L 497.17 198.00 L 509.34 198.01 C510.70,198.02 511.95,198.01 513.11,198.00 C519.89,197.97 523.13,197.96 524.67,199.57 C526.08,201.04 526.06,203.88 526.02,209.32 C526.01,210.33 526.00,211.42 526.00,212.62 L 526.00 225.95 L 496.50 226.50 L 495.97 282.95 L 480.73 283.22 L 465.50 283.50 L 465.76 302.50 C465.90,312.95 465.74,325.66 465.41,330.75 L 464.81 340.00 L 435.00 340.00 L 435.00 367.95 L 405.50 368.50 L 405.22 382.75 L 404.95 397.00 L 391.04 397.00 C378.65,397.00 377.08,397.19 376.65,398.75 C376.38,399.71 376.14,405.57 376.12,411.78 C376.10,417.98 375.81,423.49 375.48,424.03 C375.14,424.58 369.07,425.00 361.41,425.00 C351.51,425.00 347.83,425.33 347.53,426.25 C347.31,426.94 346.88,439.61 346.57,454.41 C346.26,469.21 345.89,481.45 345.73,481.60 C345.58,481.75 338.94,482.02 330.98,482.19 L 316.50 482.50 L 316.06 624.00 L 345.70 624.00 L 346.35 632.25 C346.70,636.79 346.99,643.09 346.99,646.25 L 347.00 652.00 L 376.00 652.00 L 376.00 665.83 C376.00,673.44 376.30,679.97 376.67,680.33 C377.03,680.70 438.01,681.00 512.17,681.00 L 647.00 681.00 L 647.00 652.00 L 677.00 652.00 L 677.00 624.05 L 692.00 623.78 C700.25,623.62 707.00,623.16 707.00,622.75 C707.00,622.34 707.00,590.61 707.00,552.25 L 707.00 482.50 L 692.88 482.24 C685.12,482.09 678.37,481.73 677.88,481.43 C677.40,481.13 677.00,468.32 677.00,452.97 L 677.00 425.05 L 647.50 424.50 L 646.50 397.50 L 617.50 396.50 L 616.97 340.00 L 587.00 340.00 L 587.00 283.00 L 557.00 283.00 L 557.00 255.00 L 526.00 255.00 L 526.00 226.00 L 557.00 226.00 L 557.00 254.95 L 587.50 255.50 L 587.20 262.00 C587.03,265.58 587.18,271.75 587.53,275.72 L 588.17 282.95 L 602.83 283.22 L 617.50 283.50 L 618.03 340.00 L 647.00 340.00 L 647.15 366.50 C647.23,381.08 647.34,393.56 647.40,394.25 C647.47,395.17 651.51,395.63 662.50,396.00 L 677.50 396.50 L 677.60 410.33 L 677.70 424.15 L 692.60 424.33 L 707.50 424.50 L 707.87 481.50 L 721.19 481.54 C728.51,481.56 735.06,481.67 735.75,481.79 C736.74,481.96 737.00,496.98 737.00,553.00 L 737.00 624.00 L 708.00 624.00 L 707.88 635.75 C707.82,642.21 707.66,647.95 707.54,648.50 C707.41,649.05 707.24,650.06 707.15,650.75 C707.04,651.69 703.35,652.00 692.50,652.00 L 678.00 652.00 L 678.00 680.95 L 662.75 681.22 L 647.50 681.50 L 646.95 710.00 L 557.00 710.00 L 557.00 738.00 L 618.10 738.00 L 618.00 750.25 C617.94,756.99 617.92,763.29 617.95,764.25 C617.99,765.83 619.38,766.00 632.50,766.00 L 647.00 766.00 L 647.00 824.00 L 618.00 824.00 L 618.00 838.00 C618.00,851.84 617.97,852.00 615.75,852.05 C605.06,852.30 409.85,852.43 407.75,852.18 ZM 405.88 797.00 L 406.00 824.00 L 617.00 824.00 L 617.00 765.99 L 511.25 766.25 C411.24,766.49 405.51,766.60 405.62,768.25 C405.69,769.21 405.81,782.15 405.88,797.00 ZM 526.00 624.00 L 526.00 652.00 L 496.00 652.00 L 496.00 624.00 L 465.00 624.00 L 465.00 596.00 L 451.58 596.00 C444.20,596.00 437.45,595.73 436.58,595.39 C435.19,594.86 435.00,591.40 435.00,566.87 L 435.00 538.95 L 450.25 539.22 L 465.50 539.50 L 465.62 565.50 C465.68,579.80 465.79,592.29 465.87,593.25 C465.99,594.83 467.43,595.00 481.00,595.00 L 496.00 595.00 L 496.00 624.00 L 525.95 624.00 L 526.50 595.50 L 541.75 595.22 L 557.00 594.95 L 557.00 539.00 L 586.80 539.00 L 587.54 551.75 C588.30,564.76 587.57,593.77 586.45,594.88 C586.12,595.22 579.35,595.65 571.42,595.82 L 557.00 596.15 L 557.00 624.00 ZM 496.00 710.00 L 496.00 738.00 L 526.00 738.00 L 526.00 710.00 ZM 302.45 95.92 C302.12,95.39 305.54,95.00 310.61,95.00 C315.41,95.00 319.15,95.16 318.92,95.36 C317.90,96.25 302.97,96.75 302.45,95.92 ZM 303.00 912.00 C303.00,911.45 304.77,911.00 306.94,911.00 C309.11,911.00 311.16,911.45 311.50,912.00 C311.88,912.61 310.34,913.00 307.56,913.00 C305.05,913.00 303.00,912.55 303.00,912.00 ZM 712.50 912.00 C715.30,910.80 721.00,910.80 721.00,912.00 C721.00,912.55 718.64,912.97 715.75,912.93 C711.89,912.88 711.03,912.63 712.50,912.00 Z" fill="rgb(115,39,8)"/>
<path d="M 526.00 225.95 L 526.00 255.00 L 557.00 255.00 L 557.00 283.00 L 587.00 283.00 L 587.00 340.00 L 616.97 340.00 L 617.50 396.50 L 646.50 397.50 L 647.50 424.50 L 677.00 425.05 L 677.00 452.97 C677.00,468.32 677.40,481.13 677.88,481.43 C678.37,481.73 685.12,482.09 692.88,482.24 L 707.00 482.50 L 707.00 552.25 C707.00,590.61 707.00,622.34 707.00,622.75 C707.00,623.16 700.25,623.62 692.00,623.78 L 677.00 624.05 L 677.00 652.00 L 647.00 652.00 L 647.00 681.00 L 512.17 681.00 C503.55,681.00 495.11,681.00 486.92,680.99 L 511.77 680.98 C571.02,680.98 618.92,680.60 618.22,680.16 C617.26,679.55 617.01,675.99 617.22,665.92 L 617.50 652.50 L 632.22 652.22 L 646.95 651.95 L 647.22 637.72 L 647.50 623.50 L 662.00 623.50 C669.97,623.50 676.61,623.16 676.75,622.75 C677.40,620.81 676.91,510.01 676.25,510.12 C675.84,510.18 669.09,510.18 661.25,510.12 L 647.00 510.00 L 647.00 454.05 L 617.50 453.50 L 616.95 425.00 L 587.00 425.00 L 587.00 340.00 L 572.11 340.00 C559.45,340.00 557.12,339.76 556.61,338.42 C556.27,337.55 556.00,331.25 556.00,324.42 L 556.00 312.00 L 541.61 312.00 C529.40,312.00 527.12,312.24 526.61,313.58 C526.27,314.45 526.00,327.00 526.00,341.48 L 526.00 367.79 L 518.05 368.50 C513.67,368.88 507.85,368.89 505.10,368.51 L 504.84 368.48 C501.17,367.97 499.03,367.68 497.77,368.60 C496.00,369.90 496.00,373.62 496.00,382.61 L 496.00 383.07 L 496.00 397.00 L 466.27 397.00 L 465.65 401.52 C465.31,404.00 465.31,408.68 465.65,411.91 C465.99,415.14 465.96,419.41 465.59,421.39 L 464.91 425.00 L 450.56 425.00 C438.40,425.00 436.12,425.24 435.61,426.58 C435.27,427.45 435.00,433.70 435.00,440.47 C435.00,441.51 435.01,442.47 435.01,443.36 C435.05,448.32 435.07,450.97 433.75,452.39 C432.23,454.03 428.94,454.02 421.84,453.99 C420.74,453.99 419.54,453.98 418.25,453.99 L 406.00 454.00 L 406.00 466.07 C406.00,472.70 405.53,479.00 404.96,480.07 C404.02,481.84 402.75,482.00 389.96,482.00 L 376.00 482.00 L 376.00 509.95 L 346.50 510.50 L 346.25 565.50 C346.02,615.79 345.85,620.61 344.31,621.75 C342.72,622.92 342.72,623.00 344.31,623.00 C345.52,623.00 346.04,623.92 346.15,626.25 C346.28,629.15 346.34,629.21 346.71,626.83 C346.93,625.37 347.65,624.01 348.31,623.81 C348.96,623.62 355.46,623.61 362.75,623.81 L 376.00 624.16 L 376.00 638.33 L 376.00 652.00 L 347.00 652.00 L 346.99 646.25 C346.99,643.09 346.70,636.79 346.35,632.25 L 345.70 624.00 L 316.06 624.00 L 316.50 482.50 L 330.98 482.19 C338.94,482.02 345.58,481.75 345.73,481.60 C345.89,481.45 346.26,469.21 346.57,454.41 C346.88,439.61 347.31,426.94 347.53,426.25 C347.83,425.33 351.51,425.00 361.41,425.00 C369.07,425.00 375.14,424.58 375.48,424.03 C375.81,423.49 376.10,417.98 376.12,411.78 C376.14,405.57 376.38,399.71 376.65,398.75 C377.08,397.19 378.65,397.00 391.04,397.00 L 404.95 397.00 L 405.22 382.75 L 405.50 368.50 L 435.00 367.95 L 435.00 340.00 L 464.81 340.00 L 465.41 330.75 C465.74,325.66 465.90,312.95 465.76,302.50 L 465.50 283.50 L 480.73 283.22 L 495.97 282.95 L 496.50 226.50 ZM 405.88 797.00 C405.81,782.15 405.69,769.21 405.62,768.25 C405.51,766.60 411.24,766.49 511.25,766.25 L 617.00 765.99 L 617.00 824.00 L 406.00 824.00 ZM 496.00 710.00 L 526.00 710.00 L 526.00 738.00 L 496.00 738.00 ZM 405.02 678.43 L 404.15 680.73 C387.05,680.62 376.82,680.48 376.67,680.33 C376.30,679.97 376.00,673.44 376.00,665.83 L 376.00 652.50 L 390.37 652.20 C404.63,651.90 404.75,651.92 405.36,654.20 C406.34,657.87 406.10,675.62 405.02,678.43 Z" fill="rgb(241,119,17)"/>
<path d="M 405.02 678.43 C406.10,675.62 406.34,657.87 405.36,654.20 C404.75,651.92 404.63,651.90 390.37,652.20 L 376.00 652.50 L 376.00 638.33 L 376.00 624.16 L 362.75 623.81 C355.46,623.61 348.96,623.62 348.31,623.81 C347.65,624.01 346.93,625.37 346.71,626.83 C346.34,629.21 346.28,629.15 346.15,626.25 C346.04,623.92 345.52,623.00 344.31,623.00 C342.72,623.00 342.72,622.92 344.31,621.75 C345.85,620.61 346.02,615.79 346.25,565.50 L 346.50 510.50 L 361.25 510.22 L 376.00 509.95 L 376.00 495.97 L 376.00 482.00 L 389.96 482.00 C402.75,482.00 404.02,481.84 404.96,480.07 C405.53,479.00 406.00,472.70 406.00,466.07 L 406.00 454.00 L 418.25 453.99 C436.38,453.97 435.00,455.08 435.00,440.47 C435.00,433.70 435.27,427.45 435.61,426.58 C436.12,425.24 438.40,425.00 450.56,425.00 L 464.91 425.00 L 465.59 421.39 C465.96,419.41 465.99,415.14 465.65,411.91 C465.31,408.68 465.31,404.00 465.65,401.52 L 466.27 397.00 L 481.14 397.00 L 496.00 397.00 L 496.00 383.07 C496.00,367.11 495.91,367.25 505.10,368.51 C507.85,368.89 513.67,368.88 518.05,368.50 L 526.00 367.79 L 526.00 341.48 C526.00,327.00 526.27,314.45 526.61,313.58 C527.12,312.24 529.40,312.00 541.61,312.00 L 556.00 312.00 L 556.00 324.42 C556.00,331.25 556.27,337.55 556.61,338.42 C557.12,339.76 559.45,340.00 572.11,340.00 L 587.00 340.00 L 587.00 382.50 L 587.00 425.00 L 601.97 425.00 L 616.95 425.00 L 617.22 439.25 L 617.50 453.50 L 632.25 453.78 L 647.00 454.05 L 647.00 482.03 L 647.00 510.00 L 661.25 510.12 C669.09,510.18 675.84,510.18 676.25,510.12 C676.91,510.01 677.40,620.81 676.75,622.75 C676.61,623.16 669.97,623.50 662.00,623.50 L 647.50 623.50 L 647.22 637.72 L 646.95 651.95 L 632.22 652.22 L 617.50 652.50 L 617.22 665.92 C617.01,675.99 617.26,679.55 618.22,680.16 C618.92,680.60 571.02,680.98 511.77,680.98 L 404.05 681.00 L 405.02 678.43 ZM 526.00 638.00 L 526.00 624.00 L 541.50 624.00 L 557.00 624.00 L 557.00 610.07 L 557.00 596.15 L 571.42 595.82 C579.35,595.65 586.12,595.22 586.45,594.88 C587.57,593.77 588.30,564.76 587.54,551.75 L 586.80 539.00 L 571.90 539.00 L 557.00 539.00 L 557.00 566.97 L 557.00 594.95 L 541.75 595.22 L 526.50 595.50 L 526.22 609.75 L 525.95 624.00 L 510.97 624.00 L 496.00 624.00 L 496.00 609.50 L 496.00 595.00 L 481.00 595.00 C467.43,595.00 465.99,594.83 465.87,593.25 C465.79,592.29 465.68,579.80 465.62,565.50 L 465.50 539.50 L 450.25 539.22 L 435.00 538.95 L 435.00 566.87 C435.00,591.40 435.19,594.86 436.58,595.39 C437.45,595.73 444.20,596.00 451.58,596.00 L 465.00 596.00 L 465.00 610.00 L 465.00 624.00 L 480.50 624.00 L 496.00 624.00 L 496.00 638.00 L 496.00 652.00 L 511.00 652.00 L 526.00 652.00 L 526.00 638.00 Z" fill="rgb(252,184,33)"/>
</g>
</svg>